<svg width="49" height="48" viewBox="0 0 49 48" fill="none" xmlns="http://www.w3.org/2000/svg">
<path d="M6.65 7C4.91094 7 3.5 8.42773 3.5 10.1875V31.4375C3.5 33.1973 4.91094 34.625 6.65 34.625H7.7C7.7 38.1445 10.5219 41 14 41C17.4781 41 20.3 38.1445 20.3 34.625H28.7C28.7 38.1445 31.5219 41 35 41C38.4781 41 41.3 38.1445 41.3 34.625H43.4C44.5616 34.625 45.5 33.6754 45.5 32.5C45.5 31.3246 44.5616 30.375 43.4 30.375V22.7582C43.4 21.6293 42.9603 20.5469 42.1728 19.75L37.1 14.6168C36.3125 13.8199 35.2428 13.375 34.1272 13.375H30.8V10.1875C30.8 8.42773 29.3891 7 27.65 7H6.65ZM30.8 17.625H34.1272L39.2 22.7582V24H30.8V17.625ZM10.85 34.625C10.85 33.7796 11.1819 32.9689 11.7726 32.3711C12.3634 31.7733 13.1646 31.4375 14 31.4375C14.8354 31.4375 15.6366 31.7733 16.2274 32.3711C16.8181 32.9689 17.15 33.7796 17.15 34.625C17.15 35.4704 16.8181 36.2811 16.2274 36.8789C15.6366 37.4767 14.8354 37.8125 14 37.8125C13.1646 37.8125 12.3634 37.4767 11.7726 36.8789C11.1819 36.2811 10.85 35.4704 10.85 34.625ZM35 31.4375C35.8354 31.4375 36.6366 31.7733 37.2274 32.3711C37.8181 32.9689 38.15 33.7796 38.15 34.625C38.15 35.4704 37.8181 36.2811 37.2274 36.8789C36.6366 37.4767 35.8354 37.8125 35 37.8125C34.1646 37.8125 33.3634 37.4767 32.7726 36.8789C32.1819 36.2811 31.85 35.4704 31.85 34.625C31.85 33.7796 32.1819 32.9689 32.7726 32.3711C33.3634 31.7733 34.1646 31.4375 35 31.4375Z" fill="url(#paint0_linear_848_5748)"/>
<defs>
<linearGradient id="paint0_linear_848_5748" x1="24.5" y1="7" x2="24.5" y2="41" gradientUnits="userSpaceOnUse">
<stop stop-color="#FFA01F"/>
<stop offset="1" stop-color="#FF8A00"/>
</linearGradient>
</defs>
</svg>
