<svg width="49" height="48" viewBox="0 0 49 48" fill="none" xmlns="http://www.w3.org/2000/svg">
<path d="M42.5289 9.70778C43.1411 10.4256 43.5 11.3333 43.5 12.3889V38.7778C43.5 39.8976 43.0552 40.9715 42.2633 41.7633C41.4715 42.5552 40.3976 43 39.2778 43H9.72222C8.60242 43 7.52848 42.5552 6.73666 41.7633C5.94484 40.9715 5.5 39.8976 5.5 38.7778V12.3889C5.5 11.3333 5.85889 10.4256 6.47111 9.70778L9.38444 6.16111C9.97556 5.44333 10.8411 5 11.8333 5H37.1667C38.1589 5 39.0244 5.44333 39.5944 6.16111L42.5289 9.70778ZM9.97556 9.22222H39.0033L37.0189 7.11111H11.6856L9.97556 9.22222ZM24.5 18.7222L12.8889 30.3333H20.2778V34.5556H28.7222V30.3333H36.1111L24.5 18.7222Z" fill="url(#paint0_linear_848_5744)"/>
<defs>
<linearGradient id="paint0_linear_848_5744" x1="13" y1="1.5" x2="43.5" y2="53.5" gradientUnits="userSpaceOnUse">
<stop stop-color="#FFD489"/>
<stop offset="1" stop-color="#FEA021"/>
</linearGradient>
</defs>
</svg>
