<svg width="44" height="44" viewBox="0 0 44 44" fill="none" xmlns="http://www.w3.org/2000/svg">
<g clip-path="url(#clip0_417_1517)">
<path d="M36.5526 14.6656H38.4996C39.472 14.6656 40.4046 15.0519 41.0923 15.7395C41.7799 16.4272 42.1662 17.3598 42.1662 18.3323V25.6656C42.1662 26.6381 41.7799 27.5707 41.0923 28.2583C40.4046 28.9459 39.472 29.3323 38.4996 29.3323H36.5526C36.1056 32.8766 34.3805 36.1361 31.7011 38.4989C29.0216 40.8617 25.572 42.1655 21.9996 42.1656V38.4989C24.9169 38.4989 27.7148 37.34 29.7777 35.2771C31.8406 33.2142 32.9996 30.4163 32.9996 27.4989V16.4989C32.9996 13.5815 31.8406 10.7836 29.7777 8.72075C27.7148 6.65785 24.9169 5.49892 21.9996 5.49892C19.0822 5.49892 16.2843 6.65785 14.2214 8.72075C12.1585 10.7836 10.9996 13.5815 10.9996 16.4989V29.3323H5.49955C4.52709 29.3323 3.59446 28.9459 2.90683 28.2583C2.21919 27.5707 1.83289 26.6381 1.83289 25.6656V18.3323C1.83289 17.3598 2.21919 16.4272 2.90683 15.7395C3.59446 15.0519 4.52709 14.6656 5.49955 14.6656H7.44655C7.89394 11.1216 9.6192 7.86259 12.2986 5.50016C14.978 3.13773 18.4274 1.83423 21.9996 1.83423C25.5717 1.83423 29.0211 3.13773 31.7005 5.50016C34.3799 7.86259 36.1052 11.1216 36.5526 14.6656ZM5.49955 18.3323V25.6656H7.33289V18.3323H5.49955ZM36.6662 18.3323V25.6656H38.4996V18.3323H36.6662ZM14.2262 28.9381L16.1696 25.8288C17.9169 26.9233 19.9377 27.5023 21.9996 27.4989C24.0614 27.5023 26.0822 26.9233 27.8296 25.8288L29.7729 28.9381C27.4432 30.3977 24.7487 31.1698 21.9996 31.1656C19.2504 31.1699 16.5559 30.3978 14.2262 28.9381Z" fill="#2E2008"/>
</g>
<defs>
<clipPath id="clip0_417_1517">
<rect width="44" height="44" fill="white"/>
</clipPath>
</defs>
</svg>
