<svg width="28" height="28" viewBox="0 0 28 28" fill="none" xmlns="http://www.w3.org/2000/svg">
<circle cx="14" cy="14" r="14" fill="#C9C9CC"/>
<path fill-rule="evenodd" clip-rule="evenodd" d="M18.5663 21.2708C19.1521 21.8566 20.1018 21.8566 20.6876 21.2708C21.2734 20.685 21.2734 19.7353 20.6876 19.1495L15.7108 14.1726L20.6876 9.19581C21.2734 8.61002 21.2734 7.66027 20.6876 7.07448C20.1018 6.4887 19.1521 6.4887 18.5663 7.07448L13.5895 12.0513L8.61028 7.07215C8.02449 6.48636 7.07475 6.48637 6.48896 7.07215C5.90317 7.65794 5.90317 8.60769 6.48896 9.19347L11.4681 14.1726L6.48896 19.1518C5.90317 19.7376 5.90317 20.6874 6.48896 21.2731C7.07475 21.8589 8.02449 21.8589 8.61028 21.2731L13.5895 16.294L18.5663 21.2708Z" fill="white"/>
</svg>
