<svg width="44" height="44" viewBox="0 0 44 44" fill="none" xmlns="http://www.w3.org/2000/svg">
<circle cx="22" cy="22" r="22" fill="#FEDFAD"/>
<path d="M29 26.7733C27.9867 26.7733 27.08 27.1733 26.3867 27.8L16.88 22.2667C16.9467 21.96 17 21.6533 17 21.3333C17 21.0133 16.9467 20.7067 16.88 20.4L26.28 14.92C27 15.5867 27.9467 16 29 16C31.2133 16 33 14.2133 33 12C33 9.78667 31.2133 8 29 8C26.7867 8 25 9.78667 25 12C25 12.32 25.0533 12.6267 25.12 12.9333L15.72 18.4133C15 17.7467 14.0533 17.3333 13 17.3333C10.7867 17.3333 9 19.12 9 21.3333C9 23.5467 10.7867 25.3333 13 25.3333C14.0533 25.3333 15 24.92 15.72 24.2533L25.2133 29.8C25.1467 30.08 25.1067 30.3733 25.1067 30.6667C25.1067 32.8133 26.8533 34.56 29 34.56C31.1467 34.56 32.8933 32.8133 32.8933 30.6667C32.8933 28.52 31.1467 26.7733 29 26.7733Z" fill="#FEA021"/>
</svg>
